<?xml version="1.0" encoding="UTF-8" standalone="no"?>
<!-- Creator: CorelDRAW 2019 (64-Bit) -->

<svg
   xml:space="preserve"
   width="210mm"
   height="87.5mm"
   version="1.1"
   style="clip-rule:evenodd;fill-rule:evenodd;image-rendering:optimizeQuality;shape-rendering:geometricPrecision;text-rendering:geometricPrecision"
   viewBox="0 0 21000 8750"
   id="svg12"
   sodipodi:docname="logo-sm.svg"
   inkscape:version="1.4 (86a8ad7, 2024-10-11)"
   xmlns:inkscape="http://www.inkscape.org/namespaces/inkscape"
   xmlns:sodipodi="http://sodipodi.sourceforge.net/DTD/sodipodi-0.dtd"
   xmlns="http://www.w3.org/2000/svg"
   xmlns:svg="http://www.w3.org/2000/svg"><sodipodi:namedview
   id="namedview12"
   pagecolor="#ffffff"
   bordercolor="#000000"
   borderopacity="0.25"
   inkscape:showpageshadow="2"
   inkscape:pageopacity="0.0"
   inkscape:pagecheckerboard="0"
   inkscape:deskcolor="#d1d1d1"
   inkscape:document-units="mm"
   inkscape:zoom="0.70822811"
   inkscape:cx="397.47081"
   inkscape:cy="518.90061"
   inkscape:window-width="1920"
   inkscape:window-height="1013"
   inkscape:window-x="-9"
   inkscape:window-y="-9"
   inkscape:window-maximized="1"
   inkscape:current-layer="Слой_x0020_1" />
 <defs
   id="defs1">
  <style
   type="text/css"
   id="style1">
   <![CDATA[
    .fil1 {fill:white}
    .fil3 {fill:#FEFEFE;fill-rule:nonzero}
    .fil0 {fill:#DC4128;fill-rule:nonzero}
    .fil2 {fill:white;fill-rule:nonzero}
   ]]>
  </style>
 </defs>
 <g
   id="Слой_x0020_1"
   inkscape:label="Слой 1"
   inkscape:groupmode="layer">
  <metadata
   id="CorelCorpID_0Corel-Layer" />
  <rect
   class="fil0"
   y="-1.8189894e-12"
   width="21000"
   height="8750"
   id="rect1"
   x="0" />
  <path
   class="fil1"
   d="m 10974.89,3500.15 c 0,263.89 -93.51,540.34 -292.22,741.39 -187.02,188.49 -455.86,301.59 -736.39,301.59 -280.54,0 -549.38,-100.53 -736.4,-301.59 -198.71,-201.05 -292.22,-477.51 -292.22,-741.39 0,-263.9 93.51,-540.35 292.22,-741.4 187.02,-188.49 455.86,-301.59 736.4,-301.59 280.53,0 549.37,100.53 736.39,301.59 198.71,201.05 292.22,477.5 292.22,741.4 z M 9572.23,3123.16 c -105.2,100.52 -151.95,251.32 -151.95,389.54 0,175.93 81.82,301.59 151.95,364.42 93.51,87.96 210.41,163.37 374.05,163.37 163.64,0 292.22,-62.84 374.04,-150.8 81.82,-87.96 151.96,-226.19 151.96,-376.99 0,-150.79 -58.45,-289.02 -151.96,-376.99 -105.2,-100.53 -245.47,-163.36 -374.04,-163.36 -128.58,-12.55 -268.84,37.72 -374.05,150.81 z"
   id="path1" />
  <polygon
   class="fil2"
   points="7526.7,14967.87 7526.7,13422.24 8192.96,13422.24 8192.96,14967.87 8672.19,14967.87 8672.19,12982.42 7035.76,12982.42 7035.76,14967.88 "
   id="polygon1"
   transform="translate(0,-10475)" />
  <path
   class="fil1"
   d="m 8204.64,5385.07 c -280.53,0 -385.73,201.06 -385.73,389.55 0,226.19 163.65,364.42 327.28,364.42 46.76,0 81.82,-12.57 116.9,-25.14 l -245.47,339.28 140.27,113.1 303.91,-452.38 c 70.14,-100.53 128.57,-201.06 128.57,-339.28 0,-213.63 -128.57,-389.55 -385.73,-389.55 z m 0,578.04 c -105.2,0 -187.02,-87.96 -187.02,-201.06 0,-113.1 81.82,-201.06 187.02,-201.06 105.2,0 187.02,87.96 187.02,201.06 0.01,113.1 -81.82,201.06 -187.02,201.06 z"
   id="path2" />
  <polygon
   class="fil2"
   points="7386.43,15885.2 7035.76,15885.2 7035.76,16073.69 7187.72,16073.69 7187.72,16991.02 7386.43,16991.02 "
   id="polygon2"
   transform="translate(0,-10475)" />
  <path
   class="fil1"
   d="m 9338.46,5385.07 h 175.33 v 753.97 h 116.89 v 175.93 l -116.89,-0.01 v 201.06 h -187.01 v -201.06 h -502.63 v -100.53 z m -268.84,766.53 h 268.84 v -439.82 z"
   id="path3" />
  <path
   class="fil2"
   d="m 15440.02,5762.05 c -23.38,0 -46.75,0 -70.14,12.57 l 35.07,-175.93 h 338.98 V 5410.2 h -479.24 l -116.89,578.04 h 11.69 c 70.14,-62.83 140.27,-75.4 198.71,-75.4 163.65,0 233.78,100.53 233.78,226.2 0,125.66 -81.82,213.62 -210.4,213.62 -128.58,0 -210.41,-75.4 -257.16,-138.22 l -70.14,188.49 c 116.89,125.67 245.47,138.22 327.28,138.22 280.54,0 409.11,-188.49 409.11,-402.11 11.7,-238.77 -151.94,-376.99 -350.65,-376.99 z"
   id="path4" />
  <polygon
   class="fil2"
   points="10893.07,16425.54 11711.29,16425.54 11711.29,16601.47 10893.07,16601.47 "
   id="polygon4"
   transform="translate(0,-10475)" />
  <path
   class="fil1"
   d="m 12471.06,4316.95 c 105.2,-113.1 151.96,-263.9 151.96,-427.26 0,-163.36 -58.45,-314.15 -140.27,-414.68 -140.27,-150.8 -350.67,-188.49 -584.45,-188.49 h -187.01 V 2947.24 H 12436 v -439.82 h -1215.64 v 1985.46 l 654.57,-0.01 c 222.09,0 444.18,-25.13 596.13,-175.92 z m -771.46,-226.2 v -414.68 h 163.64 c 58.45,0 151.96,0 210.4,50.26 35.07,25.14 58.45,75.4 58.45,150.79 0,62.84 -23.38,113.1 -46.75,138.23 -58.45,62.83 -163.65,62.83 -210.41,62.83 l -175.33,0.01 z"
   id="path5" />
  <polygon
   class="fil2"
   points="13897.1,13748.95 13897.1,14188.76 13347.73,14188.77 13347.73,14528.05 13920.47,14528.05 13920.47,14967.87 12868.48,14967.87 12868.48,12982.42 13920.47,12982.42 13920.47,13422.24 13347.73,13422.24 13347.73,13748.96 "
   id="polygon5"
   transform="translate(0,-10475)" />
  <path
   class="fil1"
   d="m 16071.21,4945.25 v -841.93 h -222.08 v -1595.9 h -1402.66 v 816.81 c 0,289.01 -23.38,502.64 -163.65,653.43 -70.14,75.41 -140.26,113.1 -210.4,113.1 v 841.93 h 432.5 v -452.38 h 1133.8 v 452.38 h 432.49 z m -713.01,-854.5 h -654.57 c 81.82,-87.96 128.57,-175.93 163.65,-301.59 35.06,-150.79 46.75,-326.72 46.75,-414.68 v -464.95 l 455.85,0.01 v 1181.21 z"
   id="path6" />
  <path
   class="fil1"
   d="m 16188.11,4492.87 713.02,-1985.46 525.98,0.01 701.33,1985.46 -514.3,-0.01 -116.9,-339.29 h -677.94 l -128.58,339.29 z m 970.16,-1369.71 -198.71,640.87 409.12,0.01 z"
   id="path7" />
  <path
   class="fil2"
   d="m 18783.02,4027.92 c -58.45,-62.84 -140.27,-100.53 -210.41,-100.53 -58.44,0 -140.26,25.14 -198.71,87.96 -35.06,37.69 -81.82,113.1 -81.82,213.62 0,113.1 46.76,175.94 81.82,213.63 70.14,75.4 140.27,87.96 198.71,87.96 70.14,0 140.27,-25.14 198.71,-87.96 46.76,-50.26 81.82,-113.1 81.82,-213.63 11.71,-87.96 -23.37,-150.79 -70.12,-201.05 z"
   id="path8" />
  <polygon
   class="fil2"
   points="18338.85,12982.42 18806.4,12982.42 18806.4,14289.3 18338.85,14289.3 "
   id="polygon8"
   transform="translate(0,-10475)" />
  <polygon
   class="fil2"
   points="10296.95,15897.77 9946.28,15897.77 9946.28,16086.25 10098.23,16086.25 10098.23,17003.58 10296.95,17003.58 "
   id="polygon9"
   transform="translate(0,-10475)" />
  <path
   class="fil1"
   d="m 13336.04,5385.07 c -280.54,0 -385.74,201.06 -385.74,389.55 0,226.19 163.65,364.42 327.29,364.42 46.75,0 81.82,-12.57 116.89,-25.14 l -245.46,339.28 140.26,113.1 315.6,-452.38 c 70.13,-100.53 128.57,-201.06 128.57,-339.28 0,-213.63 -140.27,-389.55 -397.41,-389.55 z m 0,578.04 c -105.21,0 -187.02,-87.96 -187.02,-201.06 0,-113.1 81.81,-201.06 187.02,-201.06 105.2,0 187.02,87.96 187.02,201.06 0,113.1 -81.82,201.06 -187.02,201.06 z"
   id="path9" />
  <polygon
   class="fil2"
   points="12529.51,15885.2 12178.85,15885.2 12178.85,16073.69 12330.79,16073.69 12330.79,16991.02 12529.51,16991.02 "
   id="polygon10"
   transform="translate(0,-10475)" />
  <path
   class="fil1"
   d="m 14469.85,5385.07 h 175.33 v 753.97 h 116.89 v 175.93 l -116.89,-0.01 v 201.06 h -187.02 v -201.06 h -502.61 V 6214.43 Z M 14201,6151.6 h 268.85 v -439.82 z"
   id="path10" />
  <path
   class="fil3"
   d="m 2441.39,6338.57 c 0,-52.71 9.92,-86.74 29.89,-102.19 19.92,-15.47 44.42,-23.21 73.42,-23.21 27.2,0 51.22,7.74 72.12,23.21 20.81,15.45 31.27,49.48 31.27,102.19 V 7412.5 c 0,52.67 -10.46,86.77 -31.27,102.19 -20.9,15.45 -44.92,23.2 -72.12,23.2 -29,0 -53.5,-7.75 -73.42,-23.2 -19.97,-15.42 -29.89,-49.52 -29.89,-102.19 z m -1218.27,761.94 c 0,-52.82 9.92,-87 29.9,-102.45 19.91,-15.46 44.4,-23.25 73.43,-23.25 27.16,0 51.2,7.79 72.08,23.25 20.81,15.45 31.31,49.63 31.31,102.45 v 311.65 c 0,52.9 -10.5,87 -31.31,102.47 -20.88,15.45 -44.92,23.26 -72.08,23.26 -29.03,0 -53.52,-7.81 -73.43,-23.26 -19.98,-15.47 -29.9,-49.57 -29.9,-102.47 z m 0,-762.22 c 0,-52.56 9.92,-86.53 29.9,-101.99 19.91,-15.39 44.4,-23.13 73.43,-23.13 27.16,0 51.2,7.74 72.08,23.13 20.81,15.46 31.31,49.43 31.31,101.99 v 179.54 c 0,52.6 -10.5,86.67 -31.31,101.99 -20.88,15.45 -44.92,23.12 -72.08,23.12 -29.03,0 -53.52,-7.67 -73.43,-23.12 -19.98,-15.32 -29.9,-49.39 -29.9,-101.99 z M 5215.47,1728.72 c -0.35,-1.03 -1.16,-1.75 -1.75,-2.65 -0.67,-1.11 -1.13,-2.28 -2.07,-3.19 -23.83,-23.07 -128.91,10.65 -145.28,14.04 17.27,-9.18 32.63,-17.22 38.75,-20.28 23.42,-11.75 44.14,-21.9 54.78,-27.81 33.82,-18.76 43.71,-23.57 47.98,-36.96 0.88,-2.8 1.2,-5.58 0.9,-8.38 -0.07,-0.85 -0.55,-1.56 -0.72,-2.41 -0.51,-2.21 -1.18,-4.35 -2.37,-6.36 -2.71,-4.67 -7.09,-8.78 -13.11,-11.56 -21.15,-9.82 -88.13,29.3 -88.35,27.48 -0.72,-5.33 -2.63,-9.88 -5.47,-13.71 -0.57,-0.79 -0.92,-1.76 -1.62,-2.48 -4.03,-4.09 -9.89,-6.61 -18.08,-6.74 -19.27,-0.28 -43.69,7.2 -79.12,19.22 -32.37,11.05 -64.81,21.18 -72.03,23.06 18.13,-21.56 23.39,-29.81 23.39,-29.81 0,0 12.69,-14.63 10.45,-26.63 -0.35,-1.9 -1.02,-3.78 -2.25,-5.47 -2.43,-3.37 -8.71,-5.4 -15.84,-2.86 -15.41,5.45 -43.42,29.76 -90.98,73.87 -5.58,5.27 -8.47,9.56 -16.39,15.27 -0.51,0.38 -0.84,0.64 -1.4,1.05 -3.61,0.95 -8.15,1.75 -12.72,2.52 -17.4,2.85 -39.45,3.96 -53.57,0.64 -0.69,-0.13 -1.64,-0.13 -2.29,-0.31 -1.89,-0.52 -3.04,-1.23 -4.79,-1.82 -10.88,-3.65 -19.08,-7.87 -24.47,-12.21 0.81,-1.05 19.78,-42.95 48.45,-63.82 18.34,-13.31 69.27,-57.23 73.8,-61.58 17.58,-18.25 14.8,-32.61 13.35,-42.49 -1.75,-11.69 -8.2,-22.41 -17.24,-28.65 -1.58,-1.16 -3.46,-1.42 -5.19,-2.21 -6.34,-2.91 -13.21,-4.16 -20.46,-3.5 -0.15,0.06 -0.3,0 -0.45,0 -28.17,3.06 -59.17,27.48 -63.62,31.12 -9.14,7.41 -42.62,35.79 -66.14,55.93 -7.84,6.69 -14.6,12.47 -18.97,16.25 -3.88,3.37 -10.12,7.14 -17.4,11.1 -16.39,8.77 -38.65,18.25 -55.19,25.27 l -14.09,5.98 c -29.89,12.93 -67.53,32.29 -95.32,56.14 -18.97,16.31 -41.9,58.21 -49.03,73.99 -15.63,13.01 -88.93,72.97 -177.36,126.38 -66.97,40.33 -138.29,84.45 -200.12,122.59 -46.07,28.46 -86.79,53.59 -115.5,71 -5.51,2.87 -135.58,71.86 -243.04,157.42 -32.8,26.11 -64.62,52.17 -95.01,77.05 -25.36,20.67 -48.99,39.84 -71.71,58.03 -63.54,52.16 -206.95,143.91 -222.84,155.2 -21.22,13.33 -43.3,26.96 -68.6,42.37 -38.12,23.12 -100.11,56.91 -154.13,85.44 -24.03,12.65 -46.46,24.34 -64.53,33.57 -13.55,6.96 -24.68,12.48 -32.13,16.11 -15.7,7.55 -43.52,23.39 -74.59,42.77 -1.01,0.57 -2.21,1.16 -3.19,1.74 l -0.77,0.52 c -8.14,-8.64 -16.06,-20.66 -17.24,-27.86 -6.06,-38.09 46.89,-42.69 103.23,-56.85 37.58,-9.43 68.12,-27.94 67.88,-51 v 0 c -0.02,-3.52 -0.44,-6.19 -1.07,-8.53 -1.23,-4.93 -3.43,-7.99 -5.93,-10.51 -0.92,-0.98 -1.86,-1.88 -2.82,-2.86 -2.82,-2.8 -5.52,-5.98 -7.03,-11.82 -9.3,-36.39 38.06,-39.63 44.42,-56.46 0.55,-1.44 0.88,-3.32 0.88,-5.33 0,-0.38 -0.22,-0.84 -0.27,-1.3 -0.32,-3.7 -1.72,-7.87 -5.57,-11.31 -2.15,-1.88 -4.99,-3.57 -8.73,-4.81 -14.89,-4.99 -22.3,-4.01 -42.92,1.95 -4.66,1.31 -8.68,-1.69 -10.85,-6.55 -0.92,-2.03 -1.55,-4.29 -1.68,-6.89 0,-0.2 -0.11,-0.46 -0.11,-0.72 -0.07,-5.39 1.84,-11.43 6.69,-16.63 12.91,-13.98 18.8,-18.32 14.58,-33.39 -1.43,-5.26 -3.35,-9.35 -5.47,-12.54 -6.42,-9.56 -15.1,-10.46 -21.06,-6.7 -7.92,4.95 -14.48,18.78 -30.34,16.83 -15.89,-2.01 -22.98,-11.82 -62.96,-11.88 -14.73,0 -27.64,8.11 -40.85,9.36 -5.28,0.51 -10.64,-0.08 -16.17,-2.75 -2.8,-1.28 -5.62,-3.18 -8.51,-5.58 -3.16,-2.72 -6.65,-6.88 -10.55,-11.69 -2.74,-3.37 -5.71,-7.09 -9,-10.98 -12.44,-14.75 -29.27,-31.64 -54.94,-38.91 -32.1,-9.1 -47.62,-26.78 -47.62,-26.78 0,-0.05 39.39,-12.54 51.62,-24.88 22.91,-23.05 21.16,-29.3 25.15,-45.28 1.29,-5.07 5.14,-35.09 -4.88,-48.14 -0.38,-0.46 -0.97,-0.59 -1.34,-1.03 -1.66,-1.77 -3.54,-3.13 -5.88,-3.98 -2.32,-0.78 -4.91,-1.24 -8.08,-0.83 -7.13,0.98 -31.81,24.81 -47.66,25.78 -0.15,0 -0.21,0 -0.35,0 -7.7,0.46 -12.21,-0.51 -14.48,-2.72 -0.62,-0.65 -0.73,-1.62 -1.03,-2.42 -0.24,-0.64 -0.75,-1.1 -0.81,-1.87 -0.13,-1.7 0.17,-3.63 0.77,-5.84 1.31,-4.81 1.97,-9.05 1.97,-12.93 0,-11.64 -5.67,-19.56 -15.69,-26.83 -18.3,-13.34 -68.27,-1.11 -111.08,3.16 -42.38,4.3 -75.09,0.21 -114.66,25.47 -34.11,21.77 -64.57,64.33 -64.57,64.33 0,0 -30.26,2.08 -49.04,29.49 -9.47,13.85 -9.6,25.8 -9.6,25.8 0,0 -28.32,1.1 -41.62,25.52 -7.31,13.39 -6.98,15.42 -6.98,15.42 0,0 -54.23,14.8 -72.93,48.27 -12.74,22.72 -23.02,45.28 -24.53,67.62 -0.29,4.42 -0.26,8.9 0.21,13.39 0.88,8.89 3.4,17.86 7.91,26.76 3.78,7.4 7.06,13.18 9.88,17.73 2.46,3.98 4.47,6.89 6.2,9.17 2.29,2.99 4,4.87 5.07,5.84 0.94,0.85 1.4,1.11 1.4,1.11 0,0 -12.42,28.98 -5.12,58.47 1.03,4.23 2.15,7.99 3.35,11.51 1.18,3.44 2.45,6.61 3.72,9.48 6.39,14.22 13.44,21.18 16.65,24.5 0.68,0.7 1.19,1.23 1.49,1.62 -0.55,1.88 -1.77,5.96 -3.06,11.75 -1.31,5.78 -2.65,13.2 -3.42,21.97 -0.78,8.56 -0.98,18.38 -0.06,29.04 0.94,11.03 3.09,22.93 7.16,35.27 6.16,18.78 13.13,32.87 20.17,43.4 5.17,7.79 10.28,13.12 15.16,17.54 10.97,9.94 20.27,13 24.58,13.72 1.59,0.25 2.69,0.31 2.69,0.31 0,0 1.86,28.45 4.18,63.02 0.52,7.74 1.07,15.65 1.64,23.72 1.36,20.15 2.82,40.61 4.11,57.57 0.49,6.81 0.96,13.37 1.4,19.61 0.81,12.54 1.47,23.85 1.97,33.65 1.27,24.49 1.62,39.45 1.62,39.45 -0.78,-0.33 -97.61,49.3 -97.63,49.3 0,0 -4.1,-9.1 -9.41,-19.74 -4.09,-8.26 -8.87,-17.48 -13.15,-24.31 -20.68,-33.19 -45.78,-63.41 -67.8,-89.01 -5.31,-6.1 -10.35,-11.95 -15.18,-17.53 -5.87,-6.76 -11.34,-13.19 -16.17,-18.97 -4.27,-5.14 -8.18,-10.02 -11.29,-14.37 -6.48,-8.84 -13.59,-18.06 -20.86,-27.22 -14.3,-18.06 -28.83,-34.56 -40.81,-45.61 -2.47,-2.19 -5.22,-5.07 -7.39,-6.74 -1.03,-1.18 -2.28,-2.41 -3.76,-3.78 -4.38,-4.16 -10.9,-9.35 -20.59,-15.85 -3.9,-2.6 -7.68,-5.66 -11.23,-8.9 -4.31,-3.96 -8.21,-8.25 -11.95,-12.74 -7.44,-8.82 -13.61,-18.05 -18.34,-25.99 -1.68,-2.78 -3.15,-5.32 -4.46,-7.66 -3.87,-7.07 -6.19,-12.08 -6.19,-12.08 l 212.91,-11.95 31.7,-91.73 v 0 l -37.32,-30.61 -190.14,-61.07 C 2038.7,2367.05 2358.15,322.49 2358.15,322.49 l -32.42,-93.24 v 0 l -0.22,0.59 -0.81,0.64 0.04,0.46 -66.87,89.14 -424.96,2261.68 -235.78,70.68 v 0 l 5.21,91.94 32.19,23.52 0.83,0.84 83.78,2.86 c -7.51,4.21 -18.27,11.69 -19.67,24.95 -0.68,6.56 -1.27,16.04 -0.55,24.81 0.07,0.92 0.31,1.64 0.4,2.47 0.89,7.86 2.8,14.95 6.98,18.06 v 0 c 9.23,6.83 12.84,6.43 12.84,6.43 0,0 -12.03,17.68 -5.19,36.52 3.59,10 7.79,16.37 11.01,20.4 2.89,3.63 5.04,5.33 5.04,5.33 0,0 -10.46,11.64 -4.01,30.86 1.6,4.81 3.3,8.77 4.95,11.88 4.98,9.48 9.49,12.23 9.49,12.23 0,0 -9.63,28.12 2.01,42.54 2.92,3.65 6.44,6.7 10.12,9.36 3.67,2.67 7.46,4.8 10.93,6.5 6.86,3.44 12.28,5.01 12.28,5.01 l -5.23,52.22 -27.7,5.58 -6.46,75.05 v 0 l 33.5,14.03 132.02,10 6.96,-78.8 v 0 c 0,0 -6.79,-4.6 -11.1,-8.64 -1.42,-1.36 -2.6,-2.67 -3.13,-3.7 -2.19,-4.29 -2.3,-12.28 -1.55,-19.56 6.15,-1.36 17.27,-3.7 27.55,-5.01 5.53,-0.71 9.04,0 11.64,3.45 0.85,1.18 1.6,2.67 2.28,4.49 0.59,2.27 1.15,5.07 1.68,7.92 2.89,15.08 5.16,37.37 7.37,60.89 0.49,5.58 1.03,11.16 1.54,16.81 1.03,11.25 2.1,22.36 3.23,32.69 0.2,1.82 0.55,3.5 0.75,5.32 3.98,33.21 10.54,65.23 18.33,96.48 1.52,6.04 3.03,12.08 4.64,18.12 2.28,8.64 4.6,17.28 6.98,25.81 0.24,0.77 2.89,7.97 7.23,17.79 1.55,3.51 3.37,7.34 5.4,11.56 2.12,4.35 4.47,8.84 7.05,13.57 3.23,5.92 6.76,11.83 10.65,17.76 1.89,2.91 3.85,5.76 5.91,8.56 6.22,8.58 13.02,16.63 20.46,23 -9.12,12.08 -22.21,30.33 -32.03,47.55 -18.5,32.49 -26.68,63.28 -28.5,91.48 0,0.07 0,0.14 0,0.14 -1.68,25.79 2.13,49.25 7.91,69.97 1.29,4.55 2.62,8.89 4.07,13.18 3.98,11.77 8.37,22.62 12.73,31.97 6.92,16.63 14.9,33.06 23.54,49.56 -15.71,60.8 -43.58,182.53 -52.36,226.15 -9.26,46.08 -12.52,93.76 -12.21,139.34 0.18,23.87 1.34,47.09 3.13,69.27 1.58,20.22 3.7,39.63 6.11,57.66 2.45,28.69 6.93,57.81 14.22,83.86 4.42,21.18 8.16,35.97 9.61,41.4 0.45,13.43 3.14,88.09 10.37,181.61 0.13,1.84 0.28,3.68 0.44,5.56 2.6,33.44 5.84,69.17 9.71,105.32 1.71,15.84 3.55,31.7 5.51,47.5 2.78,22.08 5.78,43.96 9.11,65.28 4.15,26.61 8.68,52.38 13.78,76.3 47.49,222.54 128.25,423.43 221.73,622.71 17.79,37.92 35.97,75.89 54.57,113.85 26.63,54.31 53.68,108.73 81.29,163.78 24.31,48.52 48.74,97.34 73.04,146.61 -140.15,10.83 -249.67,53.64 -328,128.89 -91.64,88.01 -137.38,207.17 -137.38,357.63 v 1009.17 c 0,150.52 45.74,269.75 137.38,357.7 46.06,44.27 102.89,77.33 170.35,99.28 h -756.61 c 67.46,-21.95 124.27,-55.01 170.39,-99.28 91.54,-87.95 137.34,-207.18 137.34,-357.7 v -163.22 c 0,-48.91 -1.82,-94.24 -5.43,-135.97 -3.65,-41.69 -13.18,-80.24 -28.56,-115.56 -15.42,-35.41 -38.05,-66.22 -68,-92.54 -29.9,-26.24 -72.13,-49.36 -126.48,-69.3 39.84,-16.37 73.85,-36.72 102.01,-61.27 28.08,-24.44 50.31,-50.3 66.63,-77.46 16.3,-27.28 28.12,-54.88 35.38,-83 7.2,-28.07 10.84,-53.89 10.84,-77.52 v -133.33 c 0,-34.37 -2.7,-79.27 -8.14,-134.61 -5.43,-55.26 -24.51,-109.2 -57.12,-161.84 -32.65,-52.56 -84.81,-97.9 -156.41,-135.97 -71.66,-38.08 -172.73,-57.12 -303.28,-57.12 -130.55,0 -231.66,19.04 -303.28,57.12 -71.64,38.07 -123.74,83.41 -156.41,135.97 -32.61,52.64 -51.69,106.58 -57.13,161.84 -5.43,55.34 -8.14,100.24 -8.14,134.61 v 133.33 c 0,23.63 3.15,49.45 9.52,77.52 6.34,28.12 17.68,56.26 34,84.31 16.32,28.14 37.61,53.99 63.91,77.57 26.29,23.53 59.41,43.48 99.28,59.85 -54.37,21.69 -96.58,48.93 -126.47,81.58 -29.89,32.62 -51.69,67.96 -65.26,106.02 -13.61,38.09 -21.75,76.69 -24.48,115.66 -2.71,38.99 -4.11,75.69 -4.11,110.11 v 163.22 c 0,150.52 45.77,269.75 137.41,357.7 46.06,44.27 102.87,77.33 170.31,99.28 H 788.2 v 70.48 h 4296.36 v -70.48 h -59.19 c -2.85,-7.66 -6.13,-16.44 -9.72,-26.37 -3.78,-10.48 -7.9,-21.97 -12.3,-34.51 -6.54,-18.77 -13.7,-39.69 -21.03,-62.1 -44.09,-134.55 -95.66,-323.17 -78.09,-425.08 1.92,-11.33 4.73,-21.57 8.49,-30.54 23.89,-57.18 251.49,-54.71 207.7,-135.14 -9.06,-16.64 -31.75,-49.06 -63.72,-92.78 -10.68,-14.55 -22.36,-30.4 -34.92,-47.35 -6.3,-8.45 -12.8,-17.23 -19.5,-26.2 -33.5,-45.01 -71.95,-96.34 -112.8,-151.49 -8.18,-10.98 -16.45,-22.21 -24.79,-33.54 -16.7,-22.62 -33.74,-45.73 -50.88,-69.25 -8.58,-11.76 -17.18,-23.66 -25.84,-35.54 -120.85,-166.91 -245.08,-347.57 -317.55,-486.23 -1.25,-2.41 -31.86,-63.79 -81.59,-158.65 -3.96,-7.53 -8.03,-15.25 -12.22,-23.24 -85.46,-162.16 -219.32,-407.43 -360.04,-630.8 -12.86,-20.35 -25.71,-40.49 -38.6,-60.38 -6.98,-10.8 -13.98,-21.46 -20.96,-32.07 -34.27,-51.93 -68.53,-101.69 -102.28,-147.79 -32.64,-44.58 -64.77,-85.95 -95.82,-122.3 -22.07,-25.84 -50.81,-62.95 -83.01,-106.39 -24.07,-32.5 -50.09,-68.67 -77.01,-106.96 -6.65,-9.45 -13.28,-18.93 -20,-28.62 -26.39,-37.92 -53.17,-77.22 -79.47,-116.58 -81.55,-122.15 -157.5,-243.55 -195.03,-317.23 -37.68,-58.7 -5.71,-69.1 19.25,-78.22 23.31,-8.6 141.32,-70.7 151.67,-97.9 10.34,-27.16 -21.58,-82.95 -24.58,-111.29 -6.91,-65.21 73.29,-90.92 116.28,-52.98 14.97,13.18 31.53,28.43 49.85,44.47 9.15,8.03 18.75,16.23 28.82,24.48 20.13,16.46 42.14,33.07 66.17,48.47 36.04,23.11 76.65,43.63 122.4,57.11 105.19,30.98 366.92,62.47 540.39,21.58 82.04,-19.35 164.27,-70.24 182.7,-86.68 30.7,-27.26 43.35,-54.51 37.04,-80.08 -2.34,-9.43 -7.07,-18.67 -14.72,-27.55 -6.96,-8.03 -106.77,49.06 -149,14.92 -4.33,-3.5 -8.14,-7 -11.46,-10.48 -0.59,-0.61 -0.96,-1.2 -1.51,-1.8 -5.74,-6.38 -10.14,-12.67 -13.05,-18.82 -1.61,-3.39 -2.8,-6.71 -3.69,-10 -10.46,-39.43 27.72,-71.29 32.38,-74.28 46.7,-29.3 112.06,-27 194.05,-67.31 88.03,-43.33 127.53,-95.25 138.91,-112.06 35.16,-52.05 34.29,-68.42 44.26,-76.48 15.28,-12.4 63.68,10.46 74.55,-25.47 2.37,-7.92 3.55,-17.61 2.76,-28.26 -0.02,-0.58 -0.17,-1.17 -0.2,-1.69 -1.13,-12.03 -4.86,-25.14 -11.99,-38.32 -2.73,-5.14 -5.99,-10.15 -9.82,-15.22 -0.83,-1.1 -1.49,-2.21 -2.37,-3.31 -2.78,-3.37 -5.49,-6.3 -8.18,-8.9 -10.74,-10.51 -20.81,-15.91 -29.19,-23.64 -0.13,-0.13 -0.24,-0.26 -0.33,-0.39 -3.35,-3.13 -6.36,-6.83 -9.08,-11.18 -1.53,-2.41 -2.95,-5.26 -4.24,-8.32 -0.64,-1.49 -1.34,-2.73 -1.91,-4.35 -2.29,-6.55 -3.39,-13.13 -3.57,-19.68 -1.15,-45.6 44.29,-89.07 63.53,-111.22 19.76,-22.74 23.19,-47.05 14.66,-61.4 h 0.02 v 0 l -0.02,-0.07 v 0 c -0.05,-0.26 -0.53,-3.06 -5.89,-8.7 -11.75,-12.35 -47.11,-38.52 -153.26,-82.65 -59.91,-24.88 -162.71,-69.91 -283.65,-108.75 -40.31,-12.92 -82.63,-25.15 -126.08,-35.74 -139.76,-34.04 -290.86,-49.69 -404.23,-51.77 -16.19,-0.33 -31.63,-0.33 -46.14,-0.13 v 0 c -185.69,2.98 -295.12,39.1 -295.12,39.1 l -46.78,-99.06 c 0.02,0 179.36,-181.66 210.24,-230.78 30.96,-49.11 38.2,-65.43 38.2,-65.43 0,0 121.79,-92.76 170.88,-118.18 49.08,-25.45 190.87,-101.8 252.73,-169.1 61.79,-67.25 179.95,-196.33 223.61,-240 43.59,-43.59 92.69,-85.43 109.04,-96.28 16.39,-10.92 44.33,-43.46 61,-53.2 40.5,-23.79 116.37,-30.81 172.72,-61.73 56.34,-30.85 114.28,-44.24 133.71,-49.3 48.14,-12.54 176,-49.78 238.38,-71.02 56.52,-19.3 80.33,-11.76 81.89,-34.36 0.21,-2.93 -0.14,-5.53 -0.95,-7.81 z"
   id="path11" />
  <polygon
   class="fil3"
   points="798.2,18452.99 798.2,18468.12 798.2,18523.43 5094.56,18523.43 5094.56,18452.99 "
   id="polygon11"
   transform="translate(0,-10475)" />
  <polygon
   class="fil3"
   points="798.2,18593.89 798.2,18609.04 798.2,18664.31 5094.56,18664.31 5094.56,18593.89 "
   id="polygon12"
   transform="translate(0,-10475)" />
 </g>
</svg>
