<?xml version="1.0" encoding="utf-8"?>
<!-- Generator: Adobe Illustrator 24.3.0, SVG Export Plug-In . SVG Version: 6.00 Build 0)  -->
<svg version="1.1" id="Слой_1" xmlns="http://www.w3.org/2000/svg" xmlns:xlink="http://www.w3.org/1999/xlink" x="0px" y="0px"
	 viewBox="0 0 192 80" style="enable-background:new 0 0 192 80;" xml:space="preserve">
<style type="text/css">
	.st0{fill:#C2351F;}
	.st1{fill-rule:evenodd;clip-rule:evenodd;fill:#FFFFFF;}
	.st2{fill:#FFFFFF;}
</style>
<rect class="st0" width="192" height="80"/>
<path class="st1" d="M101.5,33.2c0,2.1-0.8,4.3-2.5,5.9c-1.6,1.5-3.9,2.4-6.3,2.4s-4.7-0.8-6.3-2.4c-1.7-1.6-2.5-3.8-2.5-5.9
	c0-2.1,0.8-4.3,2.5-5.9c1.6-1.5,3.9-2.4,6.3-2.4s4.7,0.8,6.3,2.4C100.7,28.9,101.5,31.1,101.5,33.2z M89.5,30.2
	c-0.9,0.8-1.3,2-1.3,3.1c0,1.4,0.7,2.4,1.3,2.9c0.8,0.7,1.8,1.3,3.2,1.3c1.4,0,2.5-0.5,3.2-1.2c0.7-0.7,1.3-1.8,1.3-3
	c0-1.2-0.5-2.3-1.3-3c-0.9-0.8-2.1-1.3-3.2-1.3C91.6,28.9,90.4,29.3,89.5,30.2z"/>
<path class="st2" d="M81.8,41.1V25.3h-14v15.8H72V28.8h5.7v12.3H81.8z"/>
<path class="st1" d="M77.8,48.2c-2.4,0-3.3,1.6-3.3,3.1c0,1.8,1.4,2.9,2.8,2.9c0.4,0,0.7-0.1,1-0.2l-2.1,2.7l1.2,0.9L80,54
	c0.6-0.8,1.1-1.6,1.1-2.7C81.1,49.6,80,48.2,77.8,48.2z M77.8,52.8c-0.9,0-1.6-0.7-1.6-1.6c0-0.9,0.7-1.6,1.6-1.6
	c0.9,0,1.6,0.7,1.6,1.6C79.4,52.1,78.7,52.8,77.8,52.8z"/>
<path class="st2" d="M67.8,49.9h1.3v7.3h1.7v-8.8h-3V49.9z"/>
<path class="st1" d="M87.5,48.2h1.5v6h1v1.4h-1v1.6h-1.6v-1.6h-4.3v-0.8L87.5,48.2z M85.2,54.3h2.3v-3.5L85.2,54.3z"/>
<path class="st2" d="M139.7,51.2c-0.2,0-0.4,0-0.6,0.1l0.3-1.4h2.9v-1.5h-4.1l-1,4.6h0.1c0.6-0.5,1.2-0.6,1.7-0.6c1.4,0,2,0.8,2,1.8
	c0,1-0.7,1.7-1.8,1.7c-1.1,0-1.8-0.6-2.2-1.1l-0.6,1.5c1,1,2.1,1.1,2.8,1.1c2.4,0,3.5-1.5,3.5-3.2C142.8,52.3,141.4,51.2,139.7,51.2
	z"/>
<path class="st2" d="M100.8,52.7h7v1.4h-7V52.7z"/>
<path class="st1" d="M114.3,39.7c0.9-0.9,1.3-2.1,1.3-3.4c0-1.3-0.5-2.5-1.2-3.3c-1.2-1.2-3-1.5-5-1.5h-1.6v-2.7h6.2v-3.5h-10.4
	v15.8h5.6C111.1,41.1,113,40.9,114.3,39.7z M107.7,37.9v-3.3h1.4c0.5,0,1.3,0,1.8,0.4c0.3,0.2,0.5,0.6,0.5,1.2
	c0,0.5-0.2,0.9-0.4,1.1c-0.5,0.5-1.4,0.5-1.8,0.5H107.7z"/>
<path class="st2" d="M126.7,25.3v3.5h-4.9v2.6h4.7v3.5h-4.7v2.7h4.9v3.5h-9V25.3H126.7z"/>
<path class="st1" d="M145.1,44.7v-6.7h-1.9V25.3h-12v6.5c0,2.3-0.2,4-1.4,5.2c-0.6,0.6-1.2,0.9-1.8,0.9v6.7h3.7v-3.6h9.7v3.6H145.1z
	 M139,37.9h-5.6c0.7-0.7,1.1-1.4,1.4-2.4c0.3-1.2,0.4-2.6,0.4-3.3v-3.7h3.9V37.9z"/>
<path class="st1" d="M146.1,41.1l6.1-15.8h4.5l6,15.8h-4.4l-1-2.7h-5.8l-1.1,2.7H146.1z M154.4,30.2l-1.7,5.1h3.5L154.4,30.2z"/>
<path class="st2" d="M168.3,37.4c-0.5-0.5-1.2-0.8-1.8-0.8c-0.5,0-1.2,0.2-1.7,0.7c-0.3,0.3-0.7,0.9-0.7,1.7c0,0.9,0.4,1.4,0.7,1.7
	c0.6,0.6,1.2,0.7,1.7,0.7c0.6,0,1.2-0.2,1.7-0.7c0.4-0.4,0.7-0.9,0.7-1.7C169,38.3,168.7,37.8,168.3,37.4z"/>
<path class="st2" d="M164.5,25.3h4v10.4h-4V25.3z"/>
<polygon class="st2" points="43.1,23.3 47.3,36.1 60.7,36.1 49.8,43.9 54,56.7 43.1,48.8 32.3,56.7 36.4,43.9 25.6,36.1 39,36.1 "/>
<path class="st2" d="M92.7,50H94v7.3h1.7v-8.8h-3V50z"/>
<path class="st1" d="M121.7,48.2c-2.4,0-3.3,1.6-3.3,3.1c0,1.8,1.4,2.9,2.8,2.9c0.4,0,0.7-0.1,1-0.2l-2.1,2.7l1.2,0.9l2.7-3.6
	c0.6-0.8,1.1-1.6,1.1-2.7C125.1,49.6,123.9,48.2,121.7,48.2z M121.7,52.8c-0.9,0-1.6-0.7-1.6-1.6c0-0.9,0.7-1.6,1.6-1.6
	c0.9,0,1.6,0.7,1.6,1.6C123.3,52.1,122.6,52.8,121.7,52.8z"/>
<path class="st2" d="M111.8,49.9h1.3v7.3h1.7v-8.8h-3V49.9z"/>
<path class="st1" d="M131.4,48.2h1.5v6h1v1.4h-1v1.6h-1.6v-1.6h-4.3v-0.8L131.4,48.2z M129.1,54.3h2.3v-3.5L129.1,54.3z"/>
</svg>
